<svg xmlns="http://www.w3.org/2000/svg" width="132.165" height="18.096" viewBox="0 0 132.165 18.096">
  <g id="Group_12-2" data-name="Group 12-2" transform="translate(2578.264 -583.035)" opacity="0.08">
    <path id="Fill_10" data-name="Fill 10" d="M-2475.773,598.5a5.6,5.6,0,0,0,.914-3.652c-.333-2.034-2.314-3.257-5.284-3.609a6.262,6.262,0,0,0,.514-3.41c-.878-5.413-10.878-6.386-22.315-2.179a47.776,47.776,0,0,0-10.852,5.6,4.487,4.487,0,0,0-.019-1.958c-1.034-4.02-8.786-3.261-17.312,1.705a44.133,44.133,0,0,0-5.762,4c-.649-1.6-4.017-1.5-7.757.274a16.667,16.667,0,0,0-4.84,3.384l-29.778,2.479H-2446.1Z" fill="#fff"/>
  </g>
</svg>
