<svg xmlns="http://www.w3.org/2000/svg" xmlns:xlink="http://www.w3.org/1999/xlink" width="456" height="998.042" viewBox="0 0 456 998.042">
  <defs>
    <linearGradient id="linear-gradient" x1="1.825" y1="0.939" x2="-0.777" y2="-0.046" gradientUnits="objectBoundingBox">
      <stop offset="0" stop-color="#fafcfc"/>
      <stop offset="1" stop-color="#fafcfc" stop-opacity="0.302"/>
    </linearGradient>
  </defs>
  <g id="Artboard_5" data-name="Artboard 5" transform="translate(0.395 0.425)">
    <path id="Path_2930" data-name="Path 2930" d="M0,0H456V998H0Z" transform="translate(-0.395 -0.425)" fill="#00aeef"/>
    <path id="Path_1681" data-name="Path 1681" d="M854.517,1859.82v114.443c-9.045-10.308-18.723-20.006-29.7-28.147-16.722-12.4-36.861-21.039-57.617-20.772-14.894.2-30.188,5.462-41.432,15.483-13.18,11.744-10.961,26.8-5.1,42.642,4.176,11.271,10.6,21.519,16.226,32.129a249.325,249.325,0,0,1,25.613,76.057c.863,5.244,1.456,10.255,1.961,15.132H731.15c.762-40.617-17.86-81.02-38.769-118.607-8.278-14.874-17.484-29.627-21.273-46.257s-1.025-36,11.631-47.322c5.188-4.635,11.607-7.592,18-10.267a291.657,291.657,0,0,1,74.282-20.3C801.35,1860.582,827.992,1860.974,854.517,1859.82Z" transform="translate(-399.381 -1109.574)" opacity="0.06" fill="url(#linear-gradient)"/>
    <g id="Group_1762" data-name="Group 1762" transform="translate(0.074 545.315)" opacity="0.25">
      <path id="Path_1682" data-name="Path 1682" d="M637.805,2171.719c-48.322-35.267-102.308-97.281-63.394-143.647,8.407-10.017,19.53-17.646,31.826-23.524,16.843-8.068,35.9-12.817,53.2-15.935q3.03-.545,5.983-1.025c18.989-3.106,38.224-4.732,57.286-7.363,9.376-1.291,18.711-2.824,27.957-4.9,12.1-2.711,25.04-4.224,37.781-6.422l1.372-.242" transform="translate(-334.753 -1719.82)" fill="none" stroke="#fff" stroke-miterlimit="10" stroke-width="1" opacity="0.78"/>
      <path id="Path_1683" data-name="Path 1683" d="M175.146,1802.376q-4.869-3.05-9.436-6.531c-23.475-17.9-40.532-43.945-48.25-72.386-9.957-36.712,1.553-71.317,14.435-105.911,6.273-16.843,13.837-31.415,15.229-49.29,1.109-14.225,2.421-28,1.46-42.311a213.632,213.632,0,0,0-22.1-81.492,186.112,186.112,0,0,0-16.972-27.5c-26.3-35.3-64.693-60.074-109.449-65.117" transform="translate(-0.06 -1351.84)" fill="none" stroke="#fff" stroke-miterlimit="10" stroke-width="1" opacity="0.92"/>
    </g>
  </g>
</svg>
