<svg xmlns="http://www.w3.org/2000/svg" width="72" height="72" viewBox="0 0 72 72">
  <g id="Ellipse_2_copy_2" data-name="Ellipse 2 copy 2" fill="none" opacity="0.078">
    <path d="M36,0A36,36,0,1,1,0,36,36,36,0,0,1,36,0Z" stroke="none"/>
    <path d="M 36 3 C 31.54370498657227 3 27.22230529785156 3.872093200683594 23.15583419799805 5.592071533203125 C 19.22657775878906 7.254013061523438 15.69710540771484 9.633846282958984 12.66548156738281 12.66548156738281 C 9.633846282958984 15.69710540771484 7.254013061523438 19.22657775878906 5.592071533203125 23.15583419799805 C 3.872093200683594 27.22230529785156 3 31.54370498657227 3 36 C 3 40.45629501342773 3.872093200683594 44.77769470214844 5.592071533203125 48.84416198730469 C 7.254013061523438 52.77342224121094 9.633846282958984 56.30289459228516 12.66548156738281 59.33451843261719 C 15.69710540771484 62.36615371704102 19.22657775878906 64.74598693847656 23.15583419799805 66.40792846679688 C 27.22230529785156 68.12790679931641 31.54370498657227 69 36 69 C 40.45629501342773 69 44.77769470214844 68.12790679931641 48.84416198730469 66.40792846679688 C 52.77342224121094 64.74598693847656 56.30289459228516 62.36615371704102 59.33451843261719 59.33451843261719 C 62.36615371704102 56.30289459228516 64.74598693847656 52.77342224121094 66.40792846679688 48.84416198730469 C 68.12790679931641 44.77769470214844 69 40.45629501342773 69 36 C 69 31.54370498657227 68.12790679931641 27.22230529785156 66.40792846679688 23.15583419799805 C 64.74598693847656 19.22657775878906 62.36615371704102 15.69710540771484 59.33451843261719 12.66548156738281 C 56.30289459228516 9.633846282958984 52.77342224121094 7.254013061523438 48.84416198730469 5.592071533203125 C 44.77769470214844 3.872093200683594 40.45629501342773 3 36 3 M 36 0 C 55.88224792480469 0 72 16.11775207519531 72 36 C 72 55.88224792480469 55.88224792480469 72 36 72 C 16.11775207519531 72 0 55.88224792480469 0 36 C 0 16.11775207519531 16.11775207519531 0 36 0 Z" stroke="none" fill="#0e3178"/>
  </g>
</svg>
