<svg xmlns="http://www.w3.org/2000/svg" width="603.249" height="633.716" viewBox="0 0 603.249 633.716">
  <g id="Artboard_6" data-name="Artboard 6" transform="translate(0.003 0)">
    <path id="Path_1673" data-name="Path 1673" d="M.724,194.5c2.71-31.337,13.928-61.591,32.133-86.219q.648-.874,1.3-1.734c21.082-27.668,49.327-45.01,83.318-52.211,10.014-2.123,20.169-3.659,30.321-5.141,19.869-2.9,39.783-5.6,58.845-12.112,20.431-6.974,40.042-17.158,60.388-24.872a184.779,184.779,0,0,1,25.99-7.958c23.888-5.241,51.414-5.078,75.689-2.505a271.305,271.305,0,0,1,92.065,27.031q1.327.658,2.647,1.338a272.9,272.9,0,0,1,46.769,30.261,146.566,146.566,0,0,1,13.57,12.307c28.63,29.607,34.561,70.144,39.861,110.048,2.18,16.433,4.246,32.76,7.763,48.17,5.1,22.406,15.945,45.71,23.152,69.036A172.462,172.462,0,0,1,600.154,323c9.993,61.216-5.057,118.989-33.294,171.9-7.555,14.154-14.805,28.2-22.533,41.73A313.542,313.542,0,0,1,518.3,576.052q-3.768,4.766-7.813,9.331c-17.54,19.734-37,35.919-63.021,43.877-35.3,10.785-67.012-.255-100-10.1-6.879-2.052-13.8-4.055-20.842-5.8-36.2-8.967-71.028-17.537-109.128-15.523-4.462.237-8.949.573-13.446.977-31.687,2.831-64.44,9.055-96.838,7.385-18.188-.938-35.236-5.248-49.893-14.472a82.8,82.8,0,0,1-17.961-15.286c-15.417-17.406-24.175-38.687-27.091-61.216C7.914,481.609,15.384,452.176,19.28,418c4.073-35.863,2.912-74.687-4.812-111.329C6.675,269.716-2.7,234.108.724,194.5Z" transform="translate(0 0)" fill="#fff"/>
    <path id="Path_1674" data-name="Path 1674" d="M249.882,1631.041c20.389,3.078,39.727,11.5,58.739,20.789-31.687,2.831-64.44,9.055-96.838,7.385-18.188-.938-35.236-5.248-49.893-14.473C190.141,1633.773,220.166,1626.554,249.882,1631.041Z" transform="translate(-104.607 -1053.022)" fill="#fff" opacity="0.1"/>
    <path id="Path_1675" data-name="Path 1675" d="M1152.776,1628q-3.769,4.766-7.813,9.331c-17.54,19.734-37,35.919-63.021,43.877-35.3,10.785-67.012-.255-100-10.1,13.471-6.415,26.567-14.126,40.169-20.223C1062.784,1632.621,1107.879,1628.874,1152.776,1628Z" transform="translate(-634.482 -1051.931)" fill="#fff" opacity="0.1"/>
    <path id="Path_1676" data-name="Path 1676" d="M1544.161,1022.616c10.212-59.288,33.046-116.137,44.33-174.986a172.429,172.429,0,0,1,5.615,23.06c9.993,61.216-5.057,118.989-33.294,171.9-7.555,14.154-14.8,28.2-22.533,41.73a413.42,413.42,0,0,1,5.881-61.7Z" transform="translate(-993.96 -547.695)" fill="#fff" opacity="0.1"/>
    <path id="Path_1677" data-name="Path 1677" d="M1441.81,170.62a146.6,146.6,0,0,1,13.57,12.307c28.63,29.607,34.56,70.144,39.861,110.048-29.313-29.536-42.317-71.754-51.33-112.581Q1442.836,175.51,1441.81,170.62Z" transform="translate(-931.626 -110.246)" fill="#fff" opacity="0.1"/>
    <path id="Path_1678" data-name="Path 1678" d="M754.65,12.208A184.782,184.782,0,0,1,780.64,4.25c23.888-5.241,51.414-5.078,75.689-2.505a271.305,271.305,0,0,1,92.065,27.031q1.327.658,2.647,1.338c-38.9,4.752-78.155,6.475-116.633-.17C807.554,25.3,781.518,16.659,754.65,12.208Z" transform="translate(-487.618 0)" fill="#fff" opacity="0.1"/>
    <path id="Path_1679" data-name="Path 1679" d="M96.54,196.383c21.082-27.678,49.327-45.02,83.318-52.221,10.014-2.123,20.169-3.659,30.321-5.141a241.143,241.143,0,0,1-21.022,17.243c-15.987,11.306-34.263,18.9-52.554,25.884C123.4,187.193,110.036,191.981,96.54,196.383Z" transform="translate(-62.381 -89.828)" fill="#fff" opacity="0.1"/>
  </g>
</svg>
