<svg id="Group_3624" data-name="Group 3624" xmlns="http://www.w3.org/2000/svg" width="56.73" height="133.74" viewBox="0 0 56.73 133.74">
  <g id="Group_3623" data-name="Group 3623">
    <path id="Path_2627" data-name="Path 2627" d="M7437.583-2828.426c.464,6.222-1.133,26.646-17.065,19.188s-.627-14.8,5.615-28.29C7429.507-2844.816,7437.118-2834.648,7437.583-2828.426Z" transform="translate(-7411.873 2844.957)" fill="#171032"/>
    <path id="Path_2628" data-name="Path 2628" d="M7414.977-2818.475c-.858-4.017,2.082-6.937,5.482-10.316,2.481-2.46,5.288-5.237,6.763-8.811.98-2.364,2.3-2.634,3.226-2.44,3.359.694,7.142,8.336,7.07,12.8a.128.128,0,0,1-.128.128h0a.133.133,0,0,1-.132-.133c.071-4.375-3.6-11.868-6.861-12.542-1.215-.265-2.205.515-2.935,2.287-1.491,3.609-4.324,6.417-6.82,8.892-3.374,3.328-6.238,6.2-5.416,10.076a.133.133,0,0,1-.1.158h-.031A.128.128,0,0,1,7414.977-2818.475Z" transform="translate(-7412.728 2844.981)" fill="#171032"/>
    <path id="Path_2629" data-name="Path 2629" d="M7473.842-2846.666c-1.3-2.338-3.268-2.751-6.509-.082,1.3,5.37,3.992,9.474,5.564,8.407C7474.689-2839.56,7475.352-2843.94,7473.842-2846.666Z" transform="translate(-7446.534 2850.451)" fill="#171032"/>
    <path id="Path_2630" data-name="Path 2630" d="M7459.239-2810.688c-.714,2.078-.99,4.328,1.991,5.319,0,0,1.261,2.716-2.823,3.063-5.829-.939-5.666-3.808-5.666-3.808,2.067-1.654,1.971-6.707,1.669-9.484Z" transform="translate(-7437.139 2829.211)" fill="#fde5d3"/>
    <path id="Path_2631" data-name="Path 2631" d="M7461.93-2808.3c.015,1.225,1.679,2.419,2.828,2.69a9.587,9.587,0,0,1,.393-1.485l-2.859-2.9A4.964,4.964,0,0,0,7461.93-2808.3Z" transform="translate(-7443.055 2825.603)" opacity="0.2" style="isolation: isolate"/>
    <path id="Path_2632" data-name="Path 2632" d="M7450.045-2844.972c.59-3.386,3.459-5.582,6.408-4.9,4.134.924,5.81,7.468,5.658,11.694-.164,4.7-4.7,7.091-8.254,4.293-2.369-1.863-2.715-3.762-3.725-8.2A7.159,7.159,0,0,1,7450.045-2844.972Z" transform="translate(-7435.335 2851.359)" fill="#fde5d3"/>
    <path id="Path_2633" data-name="Path 2633" d="M7446.772-2851.288c-2.3,2.348-4.038,6.432,1.021,9.495,6.544-4.222,10.469-9,8.586-10.894C7454.22-2854.856,7449.074-2853.636,7446.772-2851.288Z" transform="translate(-7431.843 2853.817)" fill="#171032"/>
    <path id="Path_2634" data-name="Path 2634" d="M7469.773-2847.7l0,0a.128.128,0,0,1,0-.181c1.97-1.965,2.787-3.481,2.364-4.39-.634-1.353-3.758-1.082-3.793-1.082a.133.133,0,0,1-.1-.1.133.133,0,0,1,.1-.156c.133-.01,3.338-.3,4.048,1.23.48,1.031-.332,2.608-2.414,4.686a.128.128,0,0,1-.092.041A.138.138,0,0,1,7469.773-2847.7Z" transform="translate(-7447.117 2853.707)" fill="#171032"/>
    <path id="Path_2635" data-name="Path 2635" d="M7448.976-2821.2a1.532,1.532,0,0,1,1.267-1.756c1.139-.133,2.042,1.21,2.308,2.175.3,1.077-.291,2.078-1.419,1.736a3.352,3.352,0,0,1-1.971-1.633A1.536,1.536,0,0,1,7448.976-2821.2Z" transform="translate(-7434.703 2833.952)" fill="#fde5d3"/>
    <path id="Path_2636" data-name="Path 2636" d="M7511.379-2709.067a49.963,49.963,0,0,0,3.372,5.054,13.937,13.937,0,0,0,2.943,2.1c.821.393-2.448.329-3.71.5-.969.131-1.2,1.206-1.2,1.526a4.892,4.892,0,0,1-.059,1.309c-.274.465-.47.127-.881-.778-.685-1.5.458-2.854-.181-3.945a58.8,58.8,0,0,0-3.939-4.818" transform="translate(-7472.54 2760.621)" fill="#fde5d3"/>
    <g id="Group_3622" data-name="Group 3622" transform="translate(28.833 58.684)">
      <g id="Group_3621" data-name="Group 3621" transform="translate(4.484 70.99)">
        <path id="Path_2637" data-name="Path 2637" d="M7547.659-2485.661h0a1.438,1.438,0,0,0,1.437-1.437v-2.628h-2.875v2.628A1.438,1.438,0,0,0,7547.659-2485.661Z" transform="translate(-7530.641 2489.727)" fill="#3c3377"/>
        <path id="Path_2638" data-name="Path 2638" d="M7503.917-2485.661h0a1.437,1.437,0,0,0,1.437-1.437v-2.628h-2.875v2.628A1.437,1.437,0,0,0,7503.917-2485.661Z" transform="translate(-7502.479 2489.727)" fill="#3c3377"/>
      </g>
      <path id="Path_2639" data-name="Path 2639" d="M7523.383-2651.167V-2686.1H7511v34.938" transform="translate(-7503.48 2687.153)" fill="none" stroke="#1b3649" stroke-miterlimit="10" stroke-width="2.391"/>
      <path id="Path_2640" data-name="Path 2640" d="M7507.231-2686.589h13.485a1.23,1.23,0,0,0,1.229-1.229h0a1.229,1.229,0,0,0-1.229-1.229h-13.485a1.229,1.229,0,0,0-1.229,1.229h0A1.23,1.23,0,0,0,7507.231-2686.589Z" transform="translate(-7500.264 2689.048)" fill="#1b3649"/>
      <rect id="Rectangle_1376" data-name="Rectangle 1376" width="27.897" height="38.779" rx="6" transform="translate(0 33.696)" fill="#2e2c60"/>
      <rect id="Rectangle_1377" data-name="Rectangle 1377" width="19.804" height="27.53" rx="5" transform="translate(4.046 42.701)" fill="#1c163f"/>
      <rect id="Rectangle_1378" data-name="Rectangle 1378" width="9.069" height="12.606" rx="4.534" transform="translate(9.414 56.195)" fill="#060412"/>
    </g>
    <path id="Path_2641" data-name="Path 2641" d="M7479.117-2766.958l1.049,2.049-.348.1s.5.685,1.25,1.684c1.9,2.54,5.388,7.088,6.152,7.362,1.073.388,1.285.086,2.711-.2a5.487,5.487,0,0,1,2.4,0l-6.592-10.878c-.445-1.673-1.587-5.822-3.379-11.421a.061.061,0,0,1-.006-.029c-1.067-2.785-1.923-4.943-3.27-6.169-.091-.08-.183-.16-.28-.234-.142-.125-.291-.234-.439-.348l-2.409,11.935Z" transform="translate(-7452.088 2809.536)" fill="#00aeef"/>
    <path id="Path_2642" data-name="Path 2642" d="M7472.625-2577.682c.583,4.688,2.2,10.22,2.895,14.83a49.3,49.3,0,0,1,.562,6.729s1.22,1.44,4.111,0c0,0,.757-28.333.634-34.325-.019-.508-.038-.856-.066-1.025-.4-2.333-4.524-.282-6.651.95-.752.423-1.25.753-1.25.753s-.019.16-.057.442A51.362,51.362,0,0,0,7472.625-2577.682Z" transform="translate(-7449.77 2685.595)" fill="#fde5d3"/>
    <path id="Path_2643" data-name="Path 2643" d="M7420.313-2600.82a17.716,17.716,0,0,0-2.295,6.664c-.567,3.317-.649,13.207-1.509,20.309-.518,4.283-.768,6.649-.768,6.649s0,2.792,3.465,2.336c0,0,8.825-30.8,9.531-35.028C7429.264-2603.044,7420.313-2600.82,7420.313-2600.82Z" transform="translate(-7413.317 2691.417)" fill="#fde5d3"/>
    <path id="Path_2644" data-name="Path 2644" d="M7414.817-2502.731s-3.02-.016-3.458-2.309a5.937,5.937,0,0,0-2.423,2.693,24.819,24.819,0,0,1,1.485,3.622c.471,1.635,2.8,3.172,5.083,3.2h3.406s1.788-.379-1.812-2.674C7415.514-2499.2,7414.817-2502.731,7414.817-2502.731Z" transform="translate(-7408.936 2629.26)" fill="#171032"/>
    <path id="Path_2645" data-name="Path 2645" d="M7481.336-2490.294a4.827,4.827,0,0,0,2.755.352,9,9,0,0,0,1.356-.352s8.291,2.927,8.331,3.644-.949.619-.949.619l-11.726,0A3.59,3.59,0,0,1,7481.336-2490.294Z" transform="translate(-7455.026 2619.766)" fill="#171032"/>
    <path id="Path_2646" data-name="Path 2646" d="M7445.126-2658.373a44.815,44.815,0,0,1-6.086,1.478,40.888,40.888,0,0,1-8.07.342,62.773,62.773,0,0,1-15.229-2.678c1.253-5.83,3.739-18.421,3.829-20.664.042-2.394.156-6.2.224-6.963a17.285,17.285,0,0,1,1.678-6.375c.267-.584.488-1.09.662-1.5.367-.869.531-1.339.531-1.339l3.981-.228c.321-.823.688-1.685,1.115-2.6l13.245,3.07c.217,2.069,1,5.535,1.354,9.506.149,1.667.288,3.43.413,5.229h0Z" transform="translate(-7413.316 2754.075)" fill="#0e3178"/>
    <path id="Path_2647" data-name="Path 2647" d="M7473.113-2788.179" transform="translate(-7450.255 2811.556)" fill="#ed9c74"/>
    <path id="Path_2648" data-name="Path 2648" d="M7485.1-2750.619l.423.495s.5.685,1.25,1.684a47.179,47.179,0,0,1,.588-7.819c.462-1.627-1-5.976-1-5.976s-.011,4.281-.011,4.435c0,.132-1.055,3.83-1.523,5.525Z" transform="translate(-7457.794 2794.854)" fill="#1a1542" opacity="0.18"/>
    <path id="Path_2649" data-name="Path 2649" d="M7428.887-2759.934a20.737,20.737,0,0,1-.667,6.541c8.8,2.8,17.858,1.068,20.318.5-.365-5.725-.713-7.968-.674-12.956a68.16,68.16,0,0,1,.994-6.98,16.582,16.582,0,0,0-.16-8.778c-.559-1.838-1.4-4.914-1.843-6.124-.143-.125-.291-.234-.44-.348a14.569,14.569,0,0,0-3.8-1.587,1.561,1.561,0,0,1-1.536,2.2c-4.066.3-5.164-2.3-5.164-2.3l-1.923.177v-.006a.044.044,0,0,0-.017.006,9.927,9.927,0,0,0-3.185,1.336,12.566,12.566,0,0,0-4.372,4.629,22.4,22.4,0,0,0,.519,7.191,66.706,66.706,0,0,1,1.547,10c.068.965.137,1.918.194,2.808.017.251.028.5.045.742.011.16.017.32.028.474C7428.813-2761.475,7428.859-2760.63,7428.887-2759.934Z" transform="translate(-7420.135 2812.579)" fill="#00aeef"/>
    <path id="Path_2650" data-name="Path 2650" d="M7456.112-2743.677s-7.181,6.171-15.635,7.085A14.645,14.645,0,0,0,7456.112-2743.677Z" transform="translate(-7429.243 2782.905)" fill="#1a1542" opacity="0.18"/>
    <path id="Path_2651" data-name="Path 2651" d="M7432.932-2716.393c.017.251.028.5.045.742.012.16.018.32.029.474a55.14,55.14,0,0,0,6.5.28c1.5-.125,1.188-.3,1.421-.359a11.66,11.66,0,0,1,1.553,0l-.888,2.033a.208.208,0,0,0,.122.279l5.029,1.751-3.076-5.211Z" transform="translate(-7424.385 2765.345)" fill="#1a1542" opacity="0.18"/>
    <g id="Group_53" data-name="Group 53" transform="translate(18.436 40.144)">
      <path id="Path_238" data-name="Path 238" d="M7462.168-2731.741l3.439,4.726,5.094-8.906-2.307-5.182Z" transform="translate(-7461.645 2741.103)" fill="#91bdce"/>
      <path id="Path_239" data-name="Path 239" d="M7460.7-2726.5l5.344-9.627,3.715,3.411-5.094,8.906Z" transform="translate(-7460.698 2737.902)" fill="#def6ff"/>
    </g>
    <path id="Path_2652" data-name="Path 2652" d="M7433.641-2760.668s-1.1,7.9-1.8,11.757-2.981-1.607-2.981-1.607Z" transform="translate(-7421.763 2793.844)" fill="#1a1542" opacity="0.18"/>
    <path id="Path_2653" data-name="Path 2653" d="M7460.689-2721.023l-5.3-.182.545-3.369,4.19.781a4.4,4.4,0,0,0,1.189-.022c.457-.116,1.135-.515,1.565-.648a5.6,5.6,0,0,1,2.39.837c.134.171-.169.362-.456.362a9.135,9.135,0,0,1-1.508-.172l-.008,0a5.39,5.39,0,0,1,1.621.628.613.613,0,0,1,.124.382c-.007.167-.118.338-.4.407a.559.559,0,0,1,.055.266.443.443,0,0,1-.371.4.566.566,0,0,1,.049.248c-.007.169-.12.341-.408.408v0c-.009.219-.235.546-.758.535a4.24,4.24,0,0,1-1.194-.309.739.739,0,0,1-.074-.022C7461.524-2720.671,7460.98-2720.9,7460.689-2721.023Z" transform="translate(-7438.843 2770.605)" fill="#fde5d3"/>
    <path id="Path_2654" data-name="Path 2654" d="M7418.976-2761.16a9.284,9.284,0,0,0,4.312,1c3.972.285,7.8.252,7.949-.159a12.737,12.737,0,0,1,1.428-2.485,1.465,1.465,0,0,1,1.31-.608l-9.906-2.3s2.3-10.042,2.757-12.086c.756-3.407.117-6.517-1.475-7.731a12.586,12.586,0,0,0-4.368,4.628,16.775,16.775,0,0,0-1.753,4.677l-.019.074C7418.14-2770.7,7416.956-2762.678,7418.976-2761.16Z" transform="translate(-7414.693 2809.848)" fill="#00aeef"/>
    <path id="Path_2655" data-name="Path 2655" d="M7431.8-2730.4" transform="translate(-7423.657 2774.358)" fill="#e7515d"/>
    <path id="Path_2656" data-name="Path 2656" d="M7532.573-2689.577a3.831,3.831,0,0,1,.5.777,5.025,5.025,0,0,1-.1,2.141c-.13.167-.5.119-.63-.226s-.238-1.546-.321-1.724a8.978,8.978,0,0,0-1.106-.968l.107-.293Z" transform="translate(-7487.476 2748.261)" fill="#fde5d3"/>
    <path id="Path_2657" data-name="Path 2657" d="M7527.5-2689.577a3.831,3.831,0,0,1,.5.777,6.487,6.487,0,0,1,.04,1.823,4.966,4.966,0,0,1-.488,1.183c-.131.167-.577-.085-.625-.451a6.932,6.932,0,0,1,.114-1c-.09-.492-.025-1.235-.088-1.37a9.014,9.014,0,0,0-1.1-.968l.107-.293Z" transform="translate(-7484.208 2748.261)" fill="#fde5d3"/>
    <path id="Path_2658" data-name="Path 2658" d="M7524.959-2689.577a3.786,3.786,0,0,1,.5.777,4.2,4.2,0,0,1,.043,1.431,2.98,2.98,0,0,1-.53,1.028c-.13.167-.61.165-.609-.388,0-.287.2-.707.169-.911-.082-.483-.06-.844-.119-.969a9.087,9.087,0,0,0-1.106-.968l.107-.293Z" transform="translate(-7482.574 2748.261)" fill="#fde5d3"/>
    <path id="Path_2659" data-name="Path 2659" d="M7530.217-2689.577a3.807,3.807,0,0,1,.5.777,4.2,4.2,0,0,1,.042,1.431,2.99,2.99,0,0,1-.529,1.028c-.131.167-.611.165-.609-.388,0-.287.2-.707.167-.911-.082-.483-.061-.844-.119-.969a8.978,8.978,0,0,0-1.1-.968l.107-.293Z" transform="translate(-7485.959 2748.261)" fill="#fde5d3"/>
    <line id="Line_30" data-name="Line 30" x1="9.906" y1="2.299" transform="translate(9.376 44.141)" fill="#1a1542"/>
    <path id="Path_2660" data-name="Path 2660" d="M7439.04-2649.368a40.909,40.909,0,0,1-8.07.342,62.786,62.786,0,0,1-15.229-2.678c1.253-5.831,3.739-18.421,3.829-20.665.042-2.394.156-6.2.224-6.963a17.284,17.284,0,0,1,1.678-6.375c.267-.584.488-1.09.662-1.5a5.818,5.818,0,0,1,.919,1.88,7.31,7.31,0,0,1-.149,2.91,58.563,58.563,0,0,0-.36,14.3c.235,3.244.609,6.592,2.244,9.406,1.938,3.337,5.407,5.492,8.922,7.091C7435.46-2650.825,7437.266-2650.127,7439.04-2649.368Z" transform="translate(-7413.316 2746.549)" fill="#1b173d"/>
  </g>
</svg>
