<svg id="Signals--inject-17" xmlns="http://www.w3.org/2000/svg" width="38.964" height="39.427" viewBox="0 0 38.964 39.427">
  <g id="Group_3632" data-name="Group 3632" transform="translate(5.939 2.598)" opacity="0.71">
    <path id="Path_2693" data-name="Path 2693" d="M7514.671-2973.839c0,4.648-.01,8.972-.029,12.167-.01,1.556-.019,2.816-.029,3.684,0,.441-.009.78-.019,1.013-.011.364-.025.819-.5.819s-.5-.436-.5-.824c0-.228-.009-.567-.015-1.008-.015-.868-.024-2.128-.034-3.689-.015-3.277-.029-7.6-.029-12.162,0-4.135.015-8.066.024-11.2.374-.015.742-.024,1.115-.044C7514.661-2981.943,7514.671-2977.993,7514.671-2973.839Z" transform="translate(-7513.507 2985.085)" fill="#0e3178"/>
  </g>
  <g id="Group_3633" data-name="Group 3633" transform="translate(31.523 0)" opacity="0.71">
    <path id="Path_2694" data-name="Path 2694" d="M7586.5-2978.536c0,4.566-.011,8.89-.029,12.167-.01,1.556-.02,2.816-.029,3.684-.01.441-.015.781-.02,1.008-.01.388-.024.824-.5.824s-.5-.436-.5-.824c0-.228-.009-.567-.014-1.008-.015-.868-.024-2.128-.034-3.689-.015-3.271-.024-7.591-.024-12.162s.01-8.89.024-12.162c0-.548,0-1.057.01-1.527.092-.01.185-.024.276-.038.267-.034.537-.073.8-.117,0,.509.009,1.076.015,1.682C7586.49-2987.421,7586.5-2983.1,7586.5-2978.536Z" transform="translate(-7585.342 2992.38)" fill="#0e3178"/>
  </g>
  <path id="Path_2695" data-name="Path 2695" d="M7531.871-2951.59h-31.3a3.731,3.731,0,0,1-3.731-3.731h0v-5.243a3.731,3.731,0,0,1,3.731-3.731h31.5a3.731,3.731,0,0,1,3.732,3.731h0v5.046a3.929,3.929,0,0,1-3.928,3.928Z" transform="translate(-7496.834 2974.298)" fill="#0e3178"/>
  <path id="Path_2696" data-name="Path 2696" d="M7509.139-2950.836h0a.593.593,0,0,0,.6-.584l.029-3.673,5.191,5.276a.591.591,0,0,0,.832,0h0a.587.587,0,0,0,0-.831l0-.005-5.18-5.268,3.672.029a.592.592,0,0,0,.6-.584h0a.588.588,0,0,0-.569-.605h-.008l-5.688-.048-.048,5.689a.591.591,0,0,0,.576.606Z" transform="translate(-7504.385 2969.686)" fill="#fafafa"/>
  <path id="Path_2697" data-name="Path 2697" d="M7532.9-2904.643h-33.364a2.7,2.7,0,0,1-2.7-2.7v-7.3a2.7,2.7,0,0,1,2.7-2.7H7533.1a2.7,2.7,0,0,1,2.7,2.695v7.112A2.921,2.921,0,0,1,7532.9-2904.643Z" transform="translate(-7496.834 2944.07)" fill="#0e3178"/>
  <path id="Path_2698" data-name="Path 2698" d="M7510.25-2911.292h0a.591.591,0,0,0,.022.836l2.654,2.534-7.4.175a.591.591,0,0,0-.577.6h0a.587.587,0,0,0,.6.577h.008l7.4-.171-2.538,2.658a.588.588,0,0,0,.021.831h0a.591.591,0,0,0,.836,0l3.924-4.115-4.115-3.928A.592.592,0,0,0,7510.25-2911.292Z" transform="translate(-7502.062 2940.284)" fill="#fafafa"/>
  <g id="Group_3634" data-name="Group 3634" transform="translate(16.399 12.757)">
    <path id="Path_2699" data-name="Path 2699" d="M7544.214-2954.961a1.523,1.523,0,0,1-.5.089.838.838,0,0,1-.609-.215.842.842,0,0,1-.228-.607.817.817,0,0,1,.883-.841,1,1,0,0,1,.406.075l-.051.171a.843.843,0,0,0-.36-.07.61.61,0,0,0-.656.655.6.6,0,0,0,.629.658.683.683,0,0,0,.28-.043v-.486h-.331v-.169h.537Z" transform="translate(-7542.877 2956.545)" fill="#fafafa"/>
    <path id="Path_2700" data-name="Path 2700" d="M7547.576-2955.371l-.169.513h-.218l.554-1.63H7548l.557,1.63h-.225l-.174-.513Zm.534-.164-.159-.469c-.036-.106-.061-.2-.084-.3h0c-.025.1-.051.2-.083.295l-.16.472Z" transform="translate(-7545.652 2956.515)" fill="#fafafa"/>
    <path id="Path_2701" data-name="Path 2701" d="M7551.142-2956.309h-.5v-.179h1.206v.179h-.5v1.451h-.212Z" transform="translate(-7547.879 2956.515)" fill="#fafafa"/>
    <path id="Path_2702" data-name="Path 2702" d="M7555.386-2955.622h-.633v.588h.706v.177h-.917v-1.63h.88v.177h-.669v.515h.633Z" transform="translate(-7550.388 2956.515)" fill="#fafafa"/>
    <path id="Path_2703" data-name="Path 2703" d="M7557.707-2955.163a.74.74,0,0,0,.377.106c.215,0,.34-.114.34-.278s-.087-.239-.307-.324c-.266-.095-.43-.232-.43-.462a.469.469,0,0,1,.527-.442.742.742,0,0,1,.36.08l-.058.171a.649.649,0,0,0-.31-.077c-.222,0-.306.133-.306.245,0,.152.1.227.324.314.275.105.415.239.415.479s-.186.469-.57.469a.838.838,0,0,1-.416-.1Z" transform="translate(-7552.391 2956.563)" fill="#fafafa"/>
  </g>
  <g id="Group_3635" data-name="Group 3635" transform="translate(16.395 15.888)">
    <path id="Path_2704" data-name="Path 2704" d="M7544.257-2947.772a1.392,1.392,0,0,1,.537.1,1.184,1.184,0,0,1,.391.257,1.088,1.088,0,0,1,.236.364,1.175,1.175,0,0,1,.078.424,1.473,1.473,0,0,1-.1.532,1.4,1.4,0,0,1-.356.505l-.818.776.435-.089h.838v.891h-2.39l-.235-.488,1.508-1.7a.549.549,0,0,0,.147-.273.647.647,0,0,0,.005-.078.359.359,0,0,0-.032-.152.352.352,0,0,0-.146-.163.375.375,0,0,0-.194-.052.094.094,0,0,0-.031.005.5.5,0,0,0-.251.092.717.717,0,0,0-.23.275l-.7-.383a1.531,1.531,0,0,1,.582-.642A1.45,1.45,0,0,1,7544.257-2947.772Z" transform="translate(-7542.868 2947.772)" fill="#fafafa"/>
    <path id="Path_2705" data-name="Path 2705" d="M7551.444-2945.094v-1.536a1.04,1.04,0,0,1,.121-.513,1.083,1.083,0,0,1,.314-.354,1.385,1.385,0,0,1,.433-.207,1.718,1.718,0,0,1,.474-.068,1.743,1.743,0,0,1,.477.068,1.354,1.354,0,0,1,.433.207,1.111,1.111,0,0,1,.312.354,1.04,1.04,0,0,1,.121.513v1.536a1.032,1.032,0,0,1-.121.508,1.111,1.111,0,0,1-.312.354,1.349,1.349,0,0,1-.433.207,1.742,1.742,0,0,1-.477.068,1.717,1.717,0,0,1-.474-.068,1.379,1.379,0,0,1-.433-.207,1.083,1.083,0,0,1-.314-.354A1.032,1.032,0,0,1,7551.444-2945.094Zm1.342-1.855a.574.574,0,0,0-.165.024.48.48,0,0,0-.145.068.36.36,0,0,0-.1.108.259.259,0,0,0-.041.147v1.52a.25.25,0,0,0,.041.142.335.335,0,0,0,.1.1.478.478,0,0,0,.145.063.628.628,0,0,0,.165.021.622.622,0,0,0,.16-.021.509.509,0,0,0,.146-.062.343.343,0,0,0,.105-.1.269.269,0,0,0,.039-.142v-1.52a.275.275,0,0,0-.042-.149.361.361,0,0,0-.1-.107.515.515,0,0,0-.144-.065A.57.57,0,0,0,7552.786-2946.949Z" transform="translate(-7548.39 2947.772)" fill="#fafafa"/>
    <path id="Path_2706" data-name="Path 2706" d="M7561.906-2941.835h-1.634v-.891h1.634Z" transform="translate(-7554.073 2944.523)" fill="#fafafa"/>
    <path id="Path_2707" data-name="Path 2707" d="M7566.816-2944.874a.622.622,0,0,0,.328-.084.261.261,0,0,0,.139-.235.352.352,0,0,0-.1-.249.4.4,0,0,0-.3-.107h-.576v-.749h.555a.228.228,0,0,0,.149-.05.3.3,0,0,0,.089-.121.342.342,0,0,0,.024-.149.29.29,0,0,0-.042-.136.32.32,0,0,0-.173-.136.6.6,0,0,0-.178-.026h-.052a.7.7,0,0,0-.244.071.62.62,0,0,0-.207.16l-.545-.482a1.678,1.678,0,0,1,.542-.442,1.357,1.357,0,0,1,.626-.16,1.852,1.852,0,0,1,.34.031,1.145,1.145,0,0,1,.314.107,1.018,1.018,0,0,1,.268.2.958.958,0,0,1,.193.309,1.321,1.321,0,0,1,.074.3.914.914,0,0,1,.01.136,1.132,1.132,0,0,1-.015.183.982.982,0,0,1-.11.289.651.651,0,0,1-.221.225.828.828,0,0,1,.236.178,1.022,1.022,0,0,1,.154.223.9.9,0,0,1,.084.238,1.249,1.249,0,0,1,.023.23,1.018,1.018,0,0,1-.115.487,1.161,1.161,0,0,1-.3.364,1.418,1.418,0,0,1-.429.23,1.558,1.558,0,0,1-.5.081,1.621,1.621,0,0,1-.356-.039,1.446,1.446,0,0,1-.341-.12,1.275,1.275,0,0,1-.3-.21,1.384,1.384,0,0,1-.244-.3l.607-.561a.615.615,0,0,0,.268.241A.8.8,0,0,0,7566.816-2944.874Z" transform="translate(-7557.511 2947.772)" fill="#fafafa"/>
    <path id="Path_2708" data-name="Path 2708" d="M7574.156-2943.915v-2.489l-.356.247-.492-.43.984-1.037H7575v3.71Z" transform="translate(-7562.467 2947.677)" fill="#fafafa"/>
  </g>
  <g id="Group_3636" data-name="Group 3636" transform="translate(16.399 29.339)">
    <path id="Path_2709" data-name="Path 2709" d="M7544.214-2908.4a1.523,1.523,0,0,1-.5.089.838.838,0,0,1-.609-.215.841.841,0,0,1-.228-.607.817.817,0,0,1,.883-.842,1.007,1.007,0,0,1,.406.075l-.051.172a.842.842,0,0,0-.36-.07.61.61,0,0,0-.656.655.6.6,0,0,0,.629.658.693.693,0,0,0,.28-.043v-.486h-.331v-.169h.537Z" transform="translate(-7542.877 2909.986)" fill="#fafafa"/>
    <path id="Path_2710" data-name="Path 2710" d="M7547.576-2908.811l-.169.513h-.218l.554-1.63H7548l.557,1.63h-.225l-.174-.513Zm.534-.165-.159-.469c-.036-.106-.061-.2-.084-.3h0c-.025.1-.051.2-.083.3l-.16.471Z" transform="translate(-7545.652 2909.955)" fill="#fafafa"/>
    <path id="Path_2711" data-name="Path 2711" d="M7551.142-2909.749h-.5v-.178h1.206v.178h-.5v1.451h-.212Z" transform="translate(-7547.879 2909.955)" fill="#fafafa"/>
    <path id="Path_2712" data-name="Path 2712" d="M7555.386-2909.062h-.633v.588h.706v.176h-.917v-1.63h.88v.177h-.669v.515h.633Z" transform="translate(-7550.388 2909.955)" fill="#fafafa"/>
    <path id="Path_2713" data-name="Path 2713" d="M7557.707-2908.6a.742.742,0,0,0,.377.106c.215,0,.34-.114.34-.278s-.087-.239-.307-.323c-.266-.094-.43-.232-.43-.462a.469.469,0,0,1,.527-.443.745.745,0,0,1,.36.08l-.058.172a.652.652,0,0,0-.31-.077c-.222,0-.306.133-.306.244,0,.152.1.227.324.314.275.106.415.239.415.479s-.186.469-.57.469a.841.841,0,0,1-.416-.1Z" transform="translate(-7552.391 2910.003)" fill="#fafafa"/>
  </g>
  <g id="Group_3637" data-name="Group 3637" transform="translate(16.395 32.47)">
    <path id="Path_2714" data-name="Path 2714" d="M7544.073-2898.315a.619.619,0,0,0,.328-.084.263.263,0,0,0,.139-.236.35.35,0,0,0-.1-.249.4.4,0,0,0-.3-.107h-.577v-.749h.555a.225.225,0,0,0,.149-.05.3.3,0,0,0,.089-.121.309.309,0,0,0,.023-.149.278.278,0,0,0-.041-.136.32.32,0,0,0-.173-.136.6.6,0,0,0-.178-.026h-.053a.7.7,0,0,0-.243.071.622.622,0,0,0-.207.16l-.544-.482a1.674,1.674,0,0,1,.542-.443,1.36,1.36,0,0,1,.626-.16,1.839,1.839,0,0,1,.34.031,1.127,1.127,0,0,1,.314.107,1.029,1.029,0,0,1,.267.2.954.954,0,0,1,.194.309,1.264,1.264,0,0,1,.073.3.855.855,0,0,1,.01.136,1.035,1.035,0,0,1-.016.183.966.966,0,0,1-.11.288.636.636,0,0,1-.22.226.806.806,0,0,1,.236.178,1.049,1.049,0,0,1,.155.223.9.9,0,0,1,.083.239,1.133,1.133,0,0,1,.025.23,1.028,1.028,0,0,1-.115.488,1.169,1.169,0,0,1-.3.364,1.425,1.425,0,0,1-.43.231,1.555,1.555,0,0,1-.5.081,1.654,1.654,0,0,1-.356-.039,1.47,1.47,0,0,1-.34-.121,1.278,1.278,0,0,1-.3-.21,1.355,1.355,0,0,1-.244-.3l.608-.56a.6.6,0,0,0,.267.24A.784.784,0,0,0,7544.073-2898.315Z" transform="translate(-7542.868 2901.212)" fill="#fafafa"/>
    <path id="Path_2715" data-name="Path 2715" d="M7552.2-2901.212a1.4,1.4,0,0,1,.538.1,1.192,1.192,0,0,1,.391.257,1.053,1.053,0,0,1,.235.364,1.178,1.178,0,0,1,.078.425,1.451,1.451,0,0,1-.1.531,1.383,1.383,0,0,1-.356.506l-.818.775.436-.089h.838v.891h-2.389l-.235-.487,1.509-1.7a.549.549,0,0,0,.146-.273.562.562,0,0,0,.006-.078.358.358,0,0,0-.031-.152.348.348,0,0,0-.146-.162.38.38,0,0,0-.194-.053.09.09,0,0,0-.031.006.494.494,0,0,0-.252.092.732.732,0,0,0-.23.275l-.7-.383a1.525,1.525,0,0,1,.581-.642A1.454,1.454,0,0,1,7552.2-2901.212Z" transform="translate(-7547.984 2901.212)" fill="#fafafa"/>
    <path id="Path_2716" data-name="Path 2716" d="M7561.083-2895.275h-1.635v-.891h1.635Z" transform="translate(-7553.543 2897.963)" fill="#fafafa"/>
    <path id="Path_2717" data-name="Path 2717" d="M7567.56-2898.163h-.346v.807h-.9v-.807h-1.3l-.3-.55,1.729-2.353h.77v2.143h.346Zm-1.174-.749.011-.948-.666.948Z" transform="translate(-7556.934 2901.117)" fill="#fafafa"/>
    <path id="Path_2718" data-name="Path 2718" d="M7574.6-2898.315a.619.619,0,0,0,.328-.084.263.263,0,0,0,.139-.236.351.351,0,0,0-.1-.249.4.4,0,0,0-.3-.107h-.576v-.749h.555a.227.227,0,0,0,.15-.05.3.3,0,0,0,.089-.121.321.321,0,0,0,.023-.149.294.294,0,0,0-.042-.136.321.321,0,0,0-.173-.136.6.6,0,0,0-.178-.026h-.052a.7.7,0,0,0-.244.071.625.625,0,0,0-.207.16l-.545-.482a1.685,1.685,0,0,1,.542-.443,1.361,1.361,0,0,1,.626-.16,1.844,1.844,0,0,1,.341.031,1.113,1.113,0,0,1,.314.107,1.026,1.026,0,0,1,.268.2.952.952,0,0,1,.193.309,1.288,1.288,0,0,1,.074.3.916.916,0,0,1,.01.136,1.085,1.085,0,0,1-.016.183.952.952,0,0,1-.109.288.657.657,0,0,1-.22.226.817.817,0,0,1,.235.178,1.015,1.015,0,0,1,.155.223.921.921,0,0,1,.084.239,1.163,1.163,0,0,1,.023.23,1.017,1.017,0,0,1-.115.488,1.171,1.171,0,0,1-.3.364,1.414,1.414,0,0,1-.43.231,1.555,1.555,0,0,1-.5.081,1.644,1.644,0,0,1-.356-.039,1.5,1.5,0,0,1-.341-.121,1.3,1.3,0,0,1-.3-.21,1.351,1.351,0,0,1-.243-.3l.608-.56a.6.6,0,0,0,.267.24A.782.782,0,0,0,7574.6-2898.315Z" transform="translate(-7562.523 2901.212)" fill="#fafafa"/>
  </g>
</svg>
