<svg xmlns="http://www.w3.org/2000/svg" width="21.064" height="21.063" viewBox="0 0 21.064 21.063">
  <g id="Group_4723" data-name="Group 4723" transform="translate(6627.406 -5596.715)">
    <g id="Group_4709" data-name="Group 4709" transform="translate(-6627.406 5596.715)">
      <path id="Path_3615" data-name="Path 3615" d="M-6606.844,5605.122a8.251,8.251,0,0,0-1.206-.673l-.6-1.463a8.424,8.424,0,0,0,.375-1.329,1.168,1.168,0,0,0-.324-1.035l-1.646-1.646a1.169,1.169,0,0,0-1.034-.324,8.3,8.3,0,0,0-1.329.375l-1.463-.605a8.35,8.35,0,0,0-.673-1.205,1.169,1.169,0,0,0-.961-.5h-2.328a1.169,1.169,0,0,0-.961.5,8.3,8.3,0,0,0-.673,1.205l-1.463.605a8.409,8.409,0,0,0-1.329-.375,1.17,1.17,0,0,0-1.034.324l-1.646,1.646a1.171,1.171,0,0,0-.325,1.035,8.4,8.4,0,0,0,.375,1.329l-.6,1.463a8.311,8.311,0,0,0-1.206.673,1.17,1.17,0,0,0-.5.961v2.328a1.171,1.171,0,0,0,.5.961,8.4,8.4,0,0,0,1.206.674l.6,1.462a8.427,8.427,0,0,0-.375,1.329,1.17,1.17,0,0,0,.325,1.035l1.646,1.646a1.17,1.17,0,0,0,1.034.324,8.322,8.322,0,0,0,1.329-.375l1.463.605a8.324,8.324,0,0,0,.673,1.205,1.17,1.17,0,0,0,.961.5h2.328a1.17,1.17,0,0,0,.961-.5,8.25,8.25,0,0,0,.673-1.205l1.463-.605a8.39,8.39,0,0,0,1.329.375,1.17,1.17,0,0,0,1.034-.324l1.646-1.646a1.167,1.167,0,0,0,.324-1.035,8.355,8.355,0,0,0-.375-1.329l.6-1.462a8.352,8.352,0,0,0,1.206-.674,1.171,1.171,0,0,0,.5-.961v-2.328A1.17,1.17,0,0,0-6606.844,5605.122Zm-10.029,6.806a4.686,4.686,0,0,1-4.681-4.681,4.686,4.686,0,0,1,4.681-4.68,4.686,4.686,0,0,1,4.68,4.68A4.686,4.686,0,0,1-6616.874,5611.927Z" transform="translate(6627.405 -5596.715)" fill="#bbc4dc"/>
    </g>
  </g>
</svg>
