<svg xmlns="http://www.w3.org/2000/svg" width="20.858" height="21.824" viewBox="0 0 20.858 21.824">
  <g id="Group_4797" data-name="Group 4797" transform="translate(-68.4 -440.01)">
    <g id="Group_4800" data-name="Group 4800">
      <path id="Path_3678" data-name="Path 3678" d="M87.61,528.814H70.047a1.647,1.647,0,0,1-1.647-1.647v-6.039a1.647,1.647,0,0,1,1.647-1.647H87.61a1.647,1.647,0,0,1,1.647,1.647v6.039a1.647,1.647,0,0,1-1.647,1.647Z" transform="translate(0 -69.552)" fill="#bbc4dc" fill-rule="evenodd"/>
      <path id="Path_3679" data-name="Path 3679" d="M97.539,461.834H89.105a4.145,4.145,0,0,1-4.145-4.145v-9.317a8.362,8.362,0,0,1,8.362-8.362h0a8.362,8.362,0,0,1,8.362,8.362v9.317a4.144,4.144,0,0,1-4.145,4.145Z" transform="translate(-14.493)" fill="#bbc4dc" fill-rule="evenodd"/>
    </g>
  </g>
</svg>
