<svg xmlns="http://www.w3.org/2000/svg" width="20.302" height="20.301" viewBox="0 0 20.302 20.301">
  <g id="Group_4719" data-name="Group 4719" transform="translate(6906.51 -5702.579)">
    <path id="Path_3620" data-name="Path 3620" d="M-6888.031,5709.56h-3.252v-5.55a1.419,1.419,0,0,0-.678-1.216,1.419,1.419,0,0,0-1.389-.062l-.018.008-11.767,6.335a2.6,2.6,0,0,0-1.376,2.3v9.683a1.825,1.825,0,0,0,1.826,1.822h16.654a1.825,1.825,0,0,0,1.822-1.822v-9.676A1.825,1.825,0,0,0-6888.031,5709.56Zm-4.956-.2a.2.2,0,0,1-.2.2l-8.761,0a.2.2,0,0,1-.1-.372l8.9-4.721a.156.156,0,0,1,.149.012.151.151,0,0,1,.074.134Zm4.028,11.41a.963.963,0,0,1-.963-.963.963.963,0,0,1,.963-.963.963.963,0,0,1,.963.963A.963.963,0,0,1-6888.959,5720.773Z" transform="translate(0.001 0)" fill="#bbc4dc"/>
  </g>
</svg>
