<?xml version="1.0" encoding="utf-8"?>
<!-- Generator: Adobe Illustrator 17.0.0, SVG Export Plug-In . SVG Version: 6.00 Build 0)  -->
<!DOCTYPE svg PUBLIC "-//W3C//DTD SVG 1.1//EN" "http://www.w3.org/Graphics/SVG/1.1/DTD/svg11.dtd">
<svg version="1.1" id="Layer_1" xmlns="http://www.w3.org/2000/svg" xmlns:xlink="http://www.w3.org/1999/xlink" x="0px" y="0px"
	 width="1000px" height="1000px" viewBox="0 0 1000 1000" enable-background="new 0 0 1000 1000" xml:space="preserve">
<g>
	<rect x="557.458" y="454.607" fill="#00AEEF" width="29.96" height="90.795"/>
	<polygon fill="#00AEEF" points="661.23,494.815 657.338,489.756 624.652,454.606 599.101,454.606 599.101,545.401 628.542,545.401 
		628.542,502.208 632.434,507.268 667.716,545.401 690.415,545.401 690.415,454.606 661.23,454.606 	"/>
	<polygon fill="#00AEEF" points="545.776,519.069 545.776,545.405 471.586,545.405 471.586,454.621 501.547,454.621 
		501.547,519.069 	"/>
	<polygon fill="#0E3178" points="412.221,482.882 409.237,489.628 406.256,482.882 391.858,454.606 359.691,454.606 
		393.414,520.758 393.414,545.401 422.858,545.401 422.858,520.758 456.581,454.606 426.618,454.606 	"/>
	<path fill="#0E3178" d="M215,464.478c0,9.089,8.192,16.457,18.297,16.457h30.877v7.654h-31.725v6.849
		c0,8.825,7.955,15.979,17.767,15.979h13.959v17.689c0,8.999,8.111,16.294,18.117,16.294h15.628v-90.795H215V464.478z"/>
	<path fill="#0E3178" d="M367.724,519.071h-27.772v-48.17c0-9-7.296-16.295-16.294-16.295h-14.057v90.796h74.581v-9.873
		C384.181,526.439,376.813,519.071,367.724,519.071z"/>
	<polygon fill="#00AEEF" points="702.097,454.595 702.097,454.607 702.097,480.937 702.097,488.501 702.097,511.425 
		702.097,519.057 702.097,519.071 702.097,545.401 702.097,545.401 702.097,545.401 735.825,545.401 735.825,545.401 785,545.401 
		785,528.942 785,519.071 785,519.057 731.138,519.057 731.138,511.425 767.586,511.425 767.586,488.501 731.138,488.501 
		731.138,480.939 766.717,480.939 766.765,480.937 785,480.937 785,464.48 785,454.607 785,454.595 	"/>
</g>
</svg>
