<svg xmlns="http://www.w3.org/2000/svg" xmlns:xlink="http://www.w3.org/1999/xlink" width="29.85" height="41.748" viewBox="0 0 29.85 41.748">
  <defs>
    <linearGradient id="linear-gradient" x1="-0.074" y1="0.978" x2="1.752" y2="-0.469" gradientUnits="objectBoundingBox">
      <stop offset="0" stop-color="#30acef"/>
      <stop offset="1" stop-color="#fff"/>
    </linearGradient>
    <linearGradient id="linear-gradient-2" x1="-0.026" y1="0.246" x2="1.269" y2="0.871" xlink:href="#linear-gradient"/>
  </defs>
  <g id="Group_3666" data-name="Group 3666" transform="translate(1355.486 -2613.021)">
    <rect id="Rectangle_1400" data-name="Rectangle 1400" width="3.101" height="10.856" transform="translate(-1353.501 2624.894) rotate(-18.648)" fill="#00a7f8"/>
    <path id="Path_2782" data-name="Path 2782" d="M-1328.844,2628.268l1.573-1.559-11.3-12.57-1.573,1.559Z" fill="#00a7f8"/>
    <path id="Path_2783" data-name="Path 2783" d="M-1327.127,2629.191l-1.3.09.12,7.026,1.3-.091Z" fill="#00a7f8"/>
    <g id="Group_3659" data-name="Group 3659">
      <rect id="Rectangle_1401" data-name="Rectangle 1401" width="12.321" height="2.381" rx="0.671" transform="translate(-1353.952 2650.776)" fill="#00a7f8"/>
      <rect id="Rectangle_1402" data-name="Rectangle 1402" width="15.389" height="2.523" rx="0.614" transform="translate(-1355.486 2652.247)" fill="#09376e"/>
      <path id="Rectangle_1403" data-name="Rectangle 1403" d="M0,0H10.737a0,0,0,0,1,0,0V17.843a1.305,1.305,0,0,1-1.305,1.305H1.3a1.3,1.3,0,0,1-1.3-1.3V0A0,0,0,0,1,0,0Z" transform="translate(-1342.44 2650.791) rotate(180)" fill="url(#linear-gradient)"/>
    </g>
    <g id="Group_3663" data-name="Group 3663">
      <path id="Path_2784" data-name="Path 2784" d="M-1337.065,2613.931a2.846,2.846,0,0,1-1,3.853l-11.417,8.338a2.843,2.843,0,0,1-3.975-.217,2.844,2.844,0,0,1,1-3.852l11.417-8.338A2.845,2.845,0,0,1-1337.065,2613.931Z" fill="url(#linear-gradient-2)"/>
      <g id="Group_3662" data-name="Group 3662">
        <g id="Group_3660" data-name="Group 3660">
          <path id="Path_2785" data-name="Path 2785" d="M-1340.031,2614.132a1.588,1.588,0,0,0-.345,2.218,1.587,1.587,0,0,0,2.217.345,1.587,1.587,0,0,0,.346-2.217A1.588,1.588,0,0,0-1340.031,2614.132Z" fill="#192f77"/>
          <path id="Path_2786" data-name="Path 2786" d="M-1339.524,2614.826a.728.728,0,0,0-.158,1.017.727.727,0,0,0,1.016.158.727.727,0,0,0,.159-1.016A.729.729,0,0,0-1339.524,2614.826Z" fill="#448cc7"/>
        </g>
        <g id="Group_3661" data-name="Group 3661">
          <path id="Path_2787" data-name="Path 2787" d="M-1352.366,2623.142a1.586,1.586,0,0,0-.346,2.217,1.588,1.588,0,0,0,2.218.346,1.588,1.588,0,0,0,.345-2.218A1.587,1.587,0,0,0-1352.366,2623.142Z" fill="#192f77"/>
          <path id="Path_2788" data-name="Path 2788" d="M-1351.859,2623.836a.727.727,0,0,0-.159,1.016.727.727,0,0,0,1.017.158.727.727,0,0,0,.158-1.016A.727.727,0,0,0-1351.859,2623.836Z" fill="#448cc7"/>
        </g>
      </g>
    </g>
    <g id="Group_3665" data-name="Group 3665">
      <g id="Group_3664" data-name="Group 3664">
        <path id="Path_2789" data-name="Path 2789" d="M-1329.569,2641.513l-.5-.04-.17-2.818a.574.574,0,0,1,.34-.56l1.155-.513a.575.575,0,0,1,.807.572h0a.574.574,0,0,1-.555.528l-.54.017a.576.576,0,0,0-.558.58Z" fill="#192f77"/>
        <path id="Path_2790" data-name="Path 2790" d="M-1326.269,2641.779l-.5-.04.379-2.2a.575.575,0,0,0-.457-.662l-.53-.1a.575.575,0,0,1-.464-.611h0a.575.575,0,0,1,.888-.435l1.058.691a.575.575,0,0,1,.246.608Z" fill="#192f77"/>
      </g>
      <path id="Path_2791" data-name="Path 2791" d="M-1325.99,2637.2a1.818,1.818,0,0,0-1.665-1.957,1.818,1.818,0,0,0-1.957,1.665,1.818,1.818,0,0,0,1.665,1.957A1.818,1.818,0,0,0-1325.99,2637.2Z" fill="#192f77"/>
      <path id="Path_2792" data-name="Path 2792" d="M-1326.9,2637.128a.907.907,0,0,0-.831-.977.907.907,0,0,0-.977.831.907.907,0,0,0,.831.977A.907.907,0,0,0-1326.9,2637.128Z" fill="#448cc7"/>
      <path id="Path_2793" data-name="Path 2793" d="M-1325.99,2628.149a1.818,1.818,0,0,0-1.665-1.957,1.818,1.818,0,0,0-1.957,1.665,1.818,1.818,0,0,0,1.665,1.957A1.818,1.818,0,0,0-1325.99,2628.149Z" fill="#192f77"/>
      <path id="Path_2794" data-name="Path 2794" d="M-1326.9,2628.076a.907.907,0,0,0-.831-.977.906.906,0,0,0-.977.831.907.907,0,0,0,.831.977A.907.907,0,0,0-1326.9,2628.076Z" fill="#448cc7"/>
    </g>
  </g>
</svg>
