<svg xmlns="http://www.w3.org/2000/svg" xmlns:xlink="http://www.w3.org/1999/xlink" width="42.05" height="62.058" viewBox="0 0 42.05 62.058">
  <defs>
    <linearGradient id="linear-gradient" x1="-0.18" y1="1.086" x2="1.175" y2="-0.285" gradientUnits="objectBoundingBox">
      <stop offset="0" stop-color="#30acef"/>
      <stop offset="1" stop-color="#fff"/>
    </linearGradient>
  </defs>
  <g id="Group_3638" data-name="Group 3638" transform="translate(1944.983 -2227.806)">
    <path id="Path_2719" data-name="Path 2719" d="M-1903.633,2243.5a20.855,20.855,0,0,0-3.2-6.855,21.079,21.079,0,0,0-3.62-3.924,20.948,20.948,0,0,0-13.509-4.913c-.355,0-.71.01-1.061.026a21.017,21.017,0,0,0-19.956,20.991c0,.263.005.525.015.783.186,5.7,2.39,11.278,5.305,16.233a59.5,59.5,0,0,0,3.548,5.33c1.494,2.019,3.034,3.868,4.5,5.5a77.322,77.322,0,0,0,7.653,7.483s21.018-18.689,21.018-35.329A20.878,20.878,0,0,0-1903.633,2243.5Zm-20.333,13.323a8.6,8.6,0,0,1-5.788-2.22,8.634,8.634,0,0,1-2.905-6.473,8.694,8.694,0,0,1,8.693-8.693,8.619,8.619,0,0,1,5.7,2.137,8.658,8.658,0,0,1,2.879,5.15,9.04,9.04,0,0,1,.113,1.406,8.693,8.693,0,0,1-8.672,8.693Z" fill="url(#linear-gradient)"/>
    <path id="Path_2720" data-name="Path 2720" d="M-1910.457,2232.719l-7.808,8.853-11.489,13.029-9.909,11.238c-2.915-4.955-5.119-10.532-5.305-16.233l19.941-21.774c.351-.016.706-.026,1.061-.026A20.948,20.948,0,0,1-1910.457,2232.719Z" fill="#fff" opacity="0.28"/>
    <path id="Path_2721" data-name="Path 2721" d="M-1903.633,2243.5l-27.986,33.171c-1.462-1.632-3-3.481-4.5-5.5l12.17-14.348,8.559-10.1,8.549-10.079A20.855,20.855,0,0,1-1903.633,2243.5Z" fill="#fff" opacity="0.28"/>
    <path id="Path_2722" data-name="Path 2722" d="M-1923.966,2236.767a11.363,11.363,0,0,0-11.361,11.361,11.364,11.364,0,0,0,11.361,11.361,11.363,11.363,0,0,0,11.361-11.361A11.363,11.363,0,0,0-1923.966,2236.767Zm0,20.054a8.694,8.694,0,0,1-8.693-8.693,8.694,8.694,0,0,1,8.693-8.693,8.694,8.694,0,0,1,8.693,8.693A8.694,8.694,0,0,1-1923.966,2256.821Z" fill="#09376e"/>
    <path id="Path_2723" data-name="Path 2723" d="M-1902.933,2288.311c0,.858-9.338,1.553-20.858,1.553s-20.857-.7-20.857-1.553,9.338-1.553,20.857-1.553S-1902.933,2287.454-1902.933,2288.311Z" fill="#09376e" opacity="0.05"/>
  </g>
</svg>
