<svg xmlns="http://www.w3.org/2000/svg" xmlns:xlink="http://www.w3.org/1999/xlink" width="70.65" height="73.656" viewBox="0 0 70.65 73.656">
  <defs>
    <clipPath id="clip-path">
      <path id="SVGID" d="M88.9,2623.229H63.693a3.414,3.414,0,0,1-3.417-3.412v-62.559a3.413,3.413,0,0,1,3.41-3.417h3.254a.427.427,0,0,1,.427.42v.265a1.878,1.878,0,0,0,1.876,1.878H83.517a1.708,1.708,0,0,0,1.711-1.706v-.43a.427.427,0,0,1,.427-.427H88.9a3.415,3.415,0,0,1,3.417,3.413v62.558a3.416,3.416,0,0,1-3.413,3.417Z" transform="translate(-60.276 -2553.841)" fill="none"/>
    </clipPath>
    <linearGradient id="linear-gradient" x1="-0.088" y1="1.237" x2="1.28" y2="-0.476" gradientUnits="objectBoundingBox">
      <stop offset="0" stop-color="#30acef"/>
      <stop offset="1" stop-color="#fff"/>
    </linearGradient>
    <linearGradient id="linear-gradient-2" x1="0.717" y1="1.045" x2="-0.349" y2="-1.535" xlink:href="#linear-gradient"/>
  </defs>
  <g id="Group_4601" data-name="Group 4601" transform="translate(-98.955 -2997.129)">
    <g id="white-mockup" transform="translate(98.955 2997.129)">
      <g id="phone">
        <g id="Group_4583" data-name="Group 4583">
          <path id="Path_3443" data-name="Path 3443" d="M95.948,2570.286v7.67a.343.343,0,0,1-.33.354v43.165A5.117,5.117,0,0,1,90.5,2626.6H64.772a4.8,4.8,0,0,1-2.03-.425,5.1,5.1,0,0,1-2.95-3.517,4.89,4.89,0,0,1-.142-1.18V2580.1a.343.343,0,0,1-.354-.33v-4.625a.343.343,0,0,1,.354-.331v-1.369a.362.362,0,0,1-.354-.354v-4.6a.363.363,0,0,1,.354-.354v-2.572a.343.343,0,0,1-.354-.331v-2.053a.343.343,0,0,1,.354-.331v-4.791a5.117,5.117,0,0,1,5.121-5.122H90.5a5,5,0,0,1,2.36.59,5.066,5.066,0,0,1,2.761,4.531v11.871A.343.343,0,0,1,95.948,2570.286Z" transform="translate(-59.297 -2552.94)" fill="#09376e"/>
        </g>
      </g>
      <g id="Group_4585" data-name="Group 4585" transform="translate(2.31 2.127)">
        <g id="Group_4584" data-name="Group 4584" clip-path="url(#clip-path)">
          <g id="YOUR_DESIGN" data-name="YOUR DESIGN" transform="translate(-0.134 0.038)">
            <rect id="Screenshot_80" data-name="Screenshot 80" width="32.039" height="69.298" fill="url(#linear-gradient)"/>
          </g>
        </g>
      </g>
      <g id="Group_4586" data-name="Group 4586">
        <path id="Path_3444" data-name="Path 3444" d="M59.651,2613.687V2580.1a.343.343,0,0,1-.354-.33v-3.092l10.974-23.742H87.523Z" transform="translate(-59.297 -2552.94)" fill="#fff" opacity="0.28"/>
        <path id="Path_3445" data-name="Path 3445" d="M95.332,2557.721v2.879l-32.875,65.23a5.1,5.1,0,0,1-2.95-3.517l33.064-69.124A5.066,5.066,0,0,1,95.332,2557.721Z" transform="translate(-59.011 -2552.6)" fill="#fff" opacity="0.28"/>
      </g>
    </g>
    <g id="Group_4589" data-name="Group 4589" transform="translate(107.771 3010.217)">
      <g id="Group_4587" data-name="Group 4587">
        <path id="Path_3446" data-name="Path 3446" d="M66.873,2558.486H95.507a3.839,3.839,0,0,0-3.84,3.84v3.344H63.033v-3.344A3.84,3.84,0,0,1,66.873,2558.486Z" transform="translate(-63.033 -2558.486)" fill="#fff"/>
        <path id="Path_3447" data-name="Path 3447" d="M66.873,2558.486H95.507a3.839,3.839,0,0,0-3.84,3.84v3.344H63.033v-3.344A3.84,3.84,0,0,1,66.873,2558.486Z" transform="translate(-63.033 -2558.486)" fill="#fff"/>
        <path id="Path_3448" data-name="Path 3448" d="M67.7,2562.326v3.344H89.776v-3.344a3.842,3.842,0,0,1,3.28-3.8,4.021,4.021,0,0,0-.562-.04H64.982a4.013,4.013,0,0,0-.559.04A3.842,3.842,0,0,1,67.7,2562.326Z" transform="translate(-61.143 -2558.486)" opacity="0.1"/>
        <path id="Path_3449" data-name="Path 3449" d="M93.576,2558.486H64.942a3.839,3.839,0,0,1,3.84,3.84v45.786a1.678,1.678,0,0,0,1.676,1.676H95.74a1.678,1.678,0,0,0,1.676-1.676v-45.786A3.84,3.84,0,0,0,93.576,2558.486Z" transform="translate(-60.437 -2558.486)" fill="#fff"/>
      </g>
      <g id="Group_4588" data-name="Group 4588" transform="translate(13.022 9.265)">
        <path id="Path_3450" data-name="Path 3450" d="M87.717,2563.83H69.261a.709.709,0,0,1-.71-.708h0a.709.709,0,0,1,.71-.71H87.717a.709.709,0,0,1,.71.71h0A.709.709,0,0,1,87.717,2563.83Z" transform="translate(-68.551 -2562.412)" fill="#606060" opacity="0.1"/>
        <path id="Path_3451" data-name="Path 3451" d="M87.717,2566.354H69.261a.711.711,0,0,1-.71-.71h0a.711.711,0,0,1,.71-.71H87.717a.711.711,0,0,1,.71.71h0A.711.711,0,0,1,87.717,2566.354Z" transform="translate(-68.551 -2558.982)" fill="#606060" opacity="0.1"/>
        <path id="Path_3452" data-name="Path 3452" d="M87.717,2568.876H69.261a.709.709,0,0,1-.71-.708h0a.711.711,0,0,1,.71-.71H87.717a.711.711,0,0,1,.71.71h0A.709.709,0,0,1,87.717,2568.876Z" transform="translate(-68.551 -2555.551)" fill="#606060" opacity="0.1"/>
        <path id="Path_3453" data-name="Path 3453" d="M87.717,2571.4H69.261a.711.711,0,0,1-.71-.71h0a.711.711,0,0,1,.71-.71H87.717a.711.711,0,0,1,.71.71h0A.711.711,0,0,1,87.717,2571.4Z" transform="translate(-68.551 -2552.121)" fill="#606060" opacity="0.1"/>
        <path id="Path_3454" data-name="Path 3454" d="M87.717,2573.923H69.261a.711.711,0,0,1-.71-.71h0a.711.711,0,0,1,.71-.71H87.717a.711.711,0,0,1,.71.71h0A.711.711,0,0,1,87.717,2573.923Z" transform="translate(-68.551 -2548.69)" fill="#606060" opacity="0.1"/>
        <path id="Path_3455" data-name="Path 3455" d="M87.717,2576.443H69.261a.71.71,0,0,1-.71-.71h0a.709.709,0,0,1,.71-.708H87.717a.709.709,0,0,1,.71.708h0A.71.71,0,0,1,87.717,2576.443Z" transform="translate(-68.551 -2545.259)" fill="#606060" opacity="0.1"/>
      </g>
    </g>
    <g id="Group_4595" data-name="Group 4595" transform="translate(120.984 3018.609)">
      <g id="Group_4590" data-name="Group 4590" transform="translate(2.608 2.609)">
        <circle id="Ellipse_407" data-name="Ellipse 407" cx="15.629" cy="15.629" r="15.629" fill="#fff" opacity="0.21"/>
      </g>
      <g id="Group_4591" data-name="Group 4591" transform="translate(5.003 4.076)">
        <path id="Path_3456" data-name="Path 3456" d="M71.738,2579.055a.988.988,0,0,1-.986-.989,14.313,14.313,0,0,1,14.3-14.3.988.988,0,1,1,0,1.975,12.335,12.335,0,0,0-12.322,12.322A.99.99,0,0,1,71.738,2579.055Z" transform="translate(-70.752 -2563.769)" fill="#fff" opacity="0.76"/>
      </g>
      <path id="Path_3457" data-name="Path 3457" d="M85.652,2595.185a16.124,16.124,0,1,1,16.121-16.124A16.142,16.142,0,0,1,85.652,2595.185Zm0-31.259a15.135,15.135,0,1,0,15.135,15.135A15.153,15.153,0,0,0,85.652,2563.927Z" transform="translate(-67.413 -2560.824)" fill="#124d87"/>
      <g id="Group_4594" data-name="Group 4594">
        <g id="Group_4593" data-name="Group 4593">
          <circle id="Ellipse_408" data-name="Ellipse 408" cx="15.629" cy="15.629" r="15.629" transform="translate(2.608 2.609)" fill="none"/>
          <g id="Group_4592" data-name="Group 4592">
            <path id="Path_3458" data-name="Path 3458" d="M101.233,2591.478a.644.644,0,0,1,.076-.061,18.271,18.271,0,1,0-3.342,3.33l2.11-2.109Zm-14.363,4.43A15.628,15.628,0,1,1,102.5,2580.28,15.628,15.628,0,0,1,86.87,2595.908Z" transform="translate(-68.632 -2562.042)" fill="#09376e"/>
          </g>
          <path id="Path_3459" data-name="Path 3459" d="M85.452,2574.632a.7.7,0,0,0-.911-.061.475.475,0,0,0-.073.061l-1.159,1.159L81.2,2577.9l-.035.034a.7.7,0,0,0,0,.986l.859.859a16.777,16.777,0,0,1,1.994-2.3,19.465,19.465,0,0,1,2.259-2.029Z" transform="translate(-51.865 -2545.195)" fill="#00a7f8"/>
          <path id="Path_3460" data-name="Path 3460" d="M98.954,2587.79,86.11,2574.808c-.045-.047-.186.014-.387.151a19.646,19.646,0,0,0-2.261,2.029,16.891,16.891,0,0,0-1.992,2.3c-.092.153-.127.262-.087.3l12.843,12.982a3.313,3.313,0,0,0,4.727,0A3.4,3.4,0,0,0,98.954,2587.79Z" transform="translate(-51.312 -2544.701)" fill="url(#linear-gradient-2)"/>
        </g>
      </g>
    </g>
  </g>
</svg>
