<svg xmlns="http://www.w3.org/2000/svg" id="apple" width="22.21" height="25.421" viewBox="0 0 22.21 25.421">
    <defs>
        <style>
            .cls-1{fill:#bbc4dc}
        </style>
    </defs>
    <path id="Path_195" d="M53.386 137.983c-4.03-.022-7.364-7.927-7.364-11.953 0-6.576 5.134-8.016 7.113-8.016a8.458 8.458 0 0 1 2.684.634 6.189 6.189 0 0 0 1.532.422 4.909 4.909 0 0 0 1.1-.342 9.1 9.1 0 0 1 3.313-.77h.008a6.9 6.9 0 0 1 5.683 2.758l.414.6-.6.433a4.8 4.8 0 0 0-2.407 3.978 4.487 4.487 0 0 0 2.607 4.15c.373.216.76.438.76.925 0 .318-2.64 7.144-6.474 7.144a5.378 5.378 0 0 1-2.186-.51 4.58 4.58 0 0 0-1.946-.45 5.167 5.167 0 0 0-1.541.4 7.8 7.8 0 0 1-2.673.6z" class="cls-1" transform="translate(-46.022 -112.562)"/>
    <path id="Path_196" d="M259.554 0c.086 3.114-2.141 5.274-4.365 5.139C254.823 2.654 257.413 0 259.554 0z" class="cls-1" transform="translate(-243.65)"/>
</svg>
