<svg xmlns="http://www.w3.org/2000/svg" xmlns:xlink="http://www.w3.org/1999/xlink" width="33.19" height="40.551" viewBox="0 0 33.19 40.551">
  <defs>
    <linearGradient id="linear-gradient" x1="0.39" y1="1.012" x2="0.676" y2="-0.546" gradientUnits="objectBoundingBox">
      <stop offset="0" stop-color="#30acef"/>
      <stop offset="1" stop-color="#fff"/>
    </linearGradient>
    <linearGradient id="linear-gradient-2" x1="0.501" y1="0.65" x2="0.497" y2="-0.88" gradientUnits="objectBoundingBox">
      <stop offset="0" stop-color="#30acef"/>
      <stop offset="0.589" stop-color="#aaddf8"/>
      <stop offset="1" stop-color="#fff"/>
    </linearGradient>
  </defs>
  <g id="Group_4637" data-name="Group 4637" transform="translate(-4449.24 3287.88)">
    <path id="Path_3516" data-name="Path 3516" d="M4450.077-3270.727h31.516v14.977a3.818,3.818,0,0,1-3.807,3.807h-23.9a3.817,3.817,0,0,1-3.807-3.807Z" fill-rule="evenodd" fill="url(#linear-gradient)"/>
    <rect id="Rectangle_1901" data-name="Rectangle 1901" width="7.155" height="6.529" rx="2.409" transform="translate(4454.295 -3287.88)" fill="#09376e"/>
    <rect id="Rectangle_1902" data-name="Rectangle 1902" width="7.155" height="6.529" rx="2.409" transform="translate(4470.22 -3287.88)" fill="#09376e"/>
    <path id="Path_3517" data-name="Path 3517" d="M4482.43-3282.117v11.178a5.727,5.727,0,0,1-5.708,5.708h-21.774a5.737,5.737,0,0,1-5.278-3.537,5.656,5.656,0,0,1-.43-2.171v-11.178a1.9,1.9,0,0,1,1.9-1.9h29.385a1.882,1.882,0,0,1,1.391.607A1.868,1.868,0,0,1,4482.43-3282.117Z" fill-rule="evenodd" fill="url(#linear-gradient-2)"/>
    <path id="Path_3518" data-name="Path 3518" d="M4478.868-3284.014l-15.054,18.783h-8.866a5.737,5.737,0,0,1-5.278-3.537c4.792-5.095,9.858-10.469,14.371-15.246Z" fill="#fff" fill-rule="evenodd" opacity="0.28"/>
    <path id="Path_3519" data-name="Path 3519" d="M4482.43-3282.117v5.875l-8.906,11.011h-6.077l14.472-18.176A1.868,1.868,0,0,1,4482.43-3282.117Z" fill="#fff" fill-rule="evenodd" opacity="0.28"/>
    <g id="Group_4636" data-name="Group 4636">
      <path id="Path_3520" data-name="Path 3520" d="M4474.093-3271.71h.967a1.479,1.479,0,0,1,1.479,1.479v20.94a1.968,1.968,0,0,1-1.962,1.962h0a1.968,1.968,0,0,1-1.962-1.962v-20.94A1.478,1.478,0,0,1,4474.093-3271.71Z" fill="#09376e" fill-rule="evenodd"/>
      <path id="Path_3521" data-name="Path 3521" d="M4474.577-3260.411a.492.492,0,0,0,.491-.491.492.492,0,0,0-.491-.491.492.492,0,0,0-.491.491A.492.492,0,0,0,4474.577-3260.411Z" fill="#fff" fill-rule="evenodd" opacity="0.28"/>
      <path id="Path_3522" data-name="Path 3522" d="M4474.577-3254.771a.492.492,0,0,0,.491-.49.492.492,0,0,0-.491-.492.493.493,0,0,0-.491.492A.492.492,0,0,0,4474.577-3254.771Z" fill="#fff" fill-rule="evenodd" opacity="0.28"/>
      <path id="Path_3523" data-name="Path 3523" d="M4476.567-3263.651h-3.98a.378.378,0,0,1-.376-.376v-4.161a.377.377,0,0,1,.376-.374h3.98a.376.376,0,0,1,.376.374v4.161a.377.377,0,0,1-.376.376Zm-.22-.6v-3.718h-3.539v3.718Z" fill="#b8e4ff" fill-rule="evenodd"/>
      <path id="Path_3524" data-name="Path 3524" d="M4474.28-3265.327a.489.489,0,0,1,.3-.1.486.486,0,0,1,.3.1v1.063a.3.3,0,0,1-.3.295h0a.3.3,0,0,1-.3-.295Z" fill="#b8e4ff" fill-rule="evenodd"/>
    </g>
    <path id="Path_3525" data-name="Path 3525" d="M4456.61-3271.71h.967a1.479,1.479,0,0,1,1.478,1.479v20.94a1.968,1.968,0,0,1-1.962,1.962h0a1.968,1.968,0,0,1-1.962-1.962v-20.94A1.479,1.479,0,0,1,4456.61-3271.71Z" fill="#09376e" fill-rule="evenodd"/>
    <path id="Path_3526" data-name="Path 3526" d="M4457.093-3260.411a.492.492,0,0,0,.492-.491.492.492,0,0,0-.492-.491.492.492,0,0,0-.491.491A.492.492,0,0,0,4457.093-3260.411Z" fill="#fff" fill-rule="evenodd" opacity="0.28"/>
    <path id="Path_3527" data-name="Path 3527" d="M4457.093-3254.771a.493.493,0,0,0,.492-.49.493.493,0,0,0-.492-.492.493.493,0,0,0-.491.492A.492.492,0,0,0,4457.093-3254.771Z" fill="#fff" fill-rule="evenodd" opacity="0.28"/>
    <path id="Path_3528" data-name="Path 3528" d="M4459.083-3263.651h-3.98a.378.378,0,0,1-.376-.376v-4.161a.377.377,0,0,1,.376-.374h3.98a.376.376,0,0,1,.376.374v4.161a.377.377,0,0,1-.376.376Zm-.221-.6v-3.718h-3.539v3.718Z" fill="#b8e4ff" fill-rule="evenodd"/>
    <path id="Path_3529" data-name="Path 3529" d="M4456.8-3265.327a.486.486,0,0,1,.3-.1.489.489,0,0,1,.3.1v1.063a.3.3,0,0,1-.3.295h0a.3.3,0,0,1-.3-.295Z" fill="#b8e4ff" fill-rule="evenodd"/>
  </g>
</svg>
