<svg xmlns="http://www.w3.org/2000/svg" width="120" height="120" viewBox="0 0 120 120">
  <g id="Group_4679" data-name="Group 4679" transform="translate(17448 -9464)">
    <g id="Group_4677" data-name="Group 4677">
      <g id="Group_4675" data-name="Group 4675" transform="translate(2686 2048)">
        <rect id="Rectangle_1905" data-name="Rectangle 1905" width="120" height="120" rx="60" transform="translate(-20134 7416)" fill="#fff"/>
      </g>
    </g>
    <g id="mail_1_" data-name="mail (1)" transform="translate(-17408 9456)">
      <g id="Group_4673" data-name="Group 4673">
        <g id="Group_4672" data-name="Group 4672">
          <path id="Path_4356" data-name="Path 4356" d="M7.34,67.518c7.935,6.72,21.857,18.542,25.95,22.228a2.417,2.417,0,0,0,3.5,0c4.1-3.69,18.018-15.513,25.953-22.233a1.2,1.2,0,0,0,.169-1.662A4.783,4.783,0,0,0,59.128,64H10.951a4.783,4.783,0,0,0-3.78,1.856A1.2,1.2,0,0,0,7.34,67.518Z" transform="translate(-15 -17.442)" fill="#09376e"/>
          <path id="Path_4357" data-name="Path 4357" d="M61.087,126.532a1.282,1.282,0,0,0-1.374.186c-9.411,7.978-21.423,18.2-25.2,21.61a5.217,5.217,0,0,1-7.191,0c-4.028-3.629-17.517-15.1-25.2-21.608A1.288,1.288,0,0,0,0,127.7v32.4a5.158,5.158,0,0,0,5.153,5.153H56.681a5.158,5.158,0,0,0,5.153-5.153V127.7A1.287,1.287,0,0,0,61.087,126.532Z" transform="translate(-11 -73)" fill="#09376e"/>
        </g>
      </g>
    </g>
  </g>
</svg>
