<svg xmlns="http://www.w3.org/2000/svg" width="120" height="120" viewBox="0 0 120 120">
  <g id="Group_4680" data-name="Group 4680" transform="translate(17448 -9464)">
    <g id="Group_4679" data-name="Group 4679">
      <g id="Group_4677" data-name="Group 4677">
        <g id="Group_4675" data-name="Group 4675" transform="translate(2686 2048)">
          <rect id="Rectangle_1905" data-name="Rectangle 1905" width="120" height="120" rx="60" transform="translate(-20134 7416)" fill="#fff"/>
        </g>
      </g>
    </g>
    <g id="user" transform="translate(-17503 9473)">
      <path id="Path_4359" data-name="Path 4359" d="M102.659,31.254a15.121,15.121,0,0,0,11.05-4.578,15.12,15.12,0,0,0,4.578-11.049,15.123,15.123,0,0,0-4.578-11.049,15.624,15.624,0,0,0-22.1,0,15.121,15.121,0,0,0-4.578,11.049,15.12,15.12,0,0,0,4.579,11.05A15.124,15.124,0,0,0,102.659,31.254Zm0,0" transform="translate(12 17.81)" fill="#09366c"/>
      <path id="Path_4360" data-name="Path 4360" d="M55.12,266.252a39.4,39.4,0,0,0-.537-4.185,32.975,32.975,0,0,0-1.029-4.207,20.783,20.783,0,0,0-1.73-3.924,14.807,14.807,0,0,0-2.608-3.4,11.5,11.5,0,0,0-3.747-2.354,12.948,12.948,0,0,0-4.783-.866,4.855,4.855,0,0,0-2.593,1.1c-.777.507-1.686,1.093-2.7,1.741A15.475,15.475,0,0,1,31.9,251.7a13.569,13.569,0,0,1-8.548,0,15.44,15.44,0,0,1-3.492-1.539c-1-.642-1.914-1.228-2.7-1.742a4.848,4.848,0,0,0-2.592-1.1,12.931,12.931,0,0,0-4.782.867,11.49,11.49,0,0,0-3.747,2.354,14.809,14.809,0,0,0-2.607,3.4A20.821,20.821,0,0,0,1.7,257.86a33.049,33.049,0,0,0-1.029,4.207,39.26,39.26,0,0,0-.537,4.186C.044,267.52,0,268.836,0,270.164a11,11,0,0,0,3.266,8.32,11.758,11.758,0,0,0,8.416,3.07H43.571a11.755,11.755,0,0,0,8.416-3.07,10.992,10.992,0,0,0,3.267-8.32C55.253,268.829,55.208,267.513,55.12,266.252Zm0,0" transform="translate(87 -198)" fill="#09366c"/>
    </g>
  </g>
</svg>
