<svg xmlns="http://www.w3.org/2000/svg" width="900" height="900" viewBox="0 0 900 900">
  <g id="Group_4665" data-name="Group 4665" transform="translate(15697 -5270)">
    <rect id="Rectangle_1937" data-name="Rectangle 1937" width="900" height="900" rx="450" transform="translate(-15697 5270)" fill="#fff"/>
    <g id="google" transform="translate(-15503 5464)">
      <path id="Path_4349" data-name="Path 4349" d="M120,256a135.165,135.165,0,0,1,19.131-69.477V100.215H52.823a256.131,256.131,0,0,0,0,311.57h86.308V325.477A135.165,135.165,0,0,1,120,256Z" fill="#fbbd00"/>
      <path id="Path_4350" data-name="Path 4350" d="M256,392l-60,60,60,60a254.061,254.061,0,0,0,155.785-52.823V372.961H325.569A135.981,135.981,0,0,1,256,392Z" fill="#0f9d58"/>
      <path id="Path_4351" data-name="Path 4351" d="M139.131,325.477,52.823,411.785A260.08,260.08,0,0,0,74.981,437.02,254.327,254.327,0,0,0,256,512V392a136.056,136.056,0,0,1-116.869-66.523Z" fill="#31aa52"/>
      <path id="Path_4352" data-name="Path 4352" d="M512,256a258.242,258.242,0,0,0-4.192-46.377l-2.251-12.3H256v120H377.452a135.385,135.385,0,0,1-51.884,55.638l86.216,86.216a260.082,260.082,0,0,0,25.235-22.158A254.328,254.328,0,0,0,512,256Z" fill="#3c79e6"/>
      <path id="Path_4353" data-name="Path 4353" d="M352.167,159.833l10.606,10.606,84.853-84.852L437.02,74.981A254.324,254.324,0,0,0,256,0L196,60l60,60A135.114,135.114,0,0,1,352.167,159.833Z" fill="#cf2d48"/>
      <path id="Path_4354" data-name="Path 4354" d="M256,120V0A254.331,254.331,0,0,0,74.98,74.98a259.849,259.849,0,0,0-22.158,25.235l86.308,86.308A136.059,136.059,0,0,1,256,120Z" fill="#eb4132"/>
    </g>
  </g>
</svg>
