<svg xmlns="http://www.w3.org/2000/svg" xmlns:xlink="http://www.w3.org/1999/xlink" width="25.676" height="47.496" viewBox="0 0 25.676 47.496">
  <defs>
    <linearGradient id="linear-gradient" x1="0.5" y1="-0.029" x2="0.5" y2="1.84" gradientUnits="objectBoundingBox">
      <stop offset="0" stop-color="#4dcbff"/>
      <stop offset="1" stop-color="#1ea9ff"/>
    </linearGradient>
    <linearGradient id="linear-gradient-2" x1="0.5" y1="-0.029" x2="0.5" y2="1.84" gradientUnits="objectBoundingBox">
      <stop offset="0" stop-color="#fff"/>
      <stop offset="1" stop-color="#1ea9ff"/>
    </linearGradient>
    <linearGradient id="linear-gradient-3" x1="-24.143" y1="17.829" x2="-24.143" y2="21.932" xlink:href="#linear-gradient"/>
    <linearGradient id="linear-gradient-4" x1="-24.143" y1="18.136" x2="-24.143" y2="21.909" xlink:href="#linear-gradient-2"/>
    <linearGradient id="linear-gradient-5" x1="0.462" y1="1.113" x2="0.845" y2="-5.135" gradientUnits="objectBoundingBox">
      <stop offset="0" stop-color="#30acef"/>
      <stop offset="1" stop-color="#fff"/>
    </linearGradient>
    <linearGradient id="linear-gradient-6" x1="-24.146" y1="17.776" x2="-24.146" y2="21.879" xlink:href="#linear-gradient"/>
    <linearGradient id="linear-gradient-7" x1="-24.146" y1="18.083" x2="-24.146" y2="21.856" xlink:href="#linear-gradient-2"/>
    <linearGradient id="linear-gradient-8" x1="0.447" y1="1.362" x2="0.83" y2="-4.886" xlink:href="#linear-gradient-5"/>
    <linearGradient id="linear-gradient-9" x1="0.5" y1="-0.057" x2="0.5" y2="1.48" gradientUnits="objectBoundingBox">
      <stop offset="0" stop-color="#8fbbf2"/>
      <stop offset="1" stop-color="#539bea"/>
    </linearGradient>
    <linearGradient id="linear-gradient-10" x1="0.421" y1="1.229" x2="0.654" y2="-0.93" xlink:href="#linear-gradient-5"/>
    <linearGradient id="linear-gradient-11" x1="0.5" y1="-0.676" x2="0.5" y2="3.047" xlink:href="#linear-gradient"/>
    <linearGradient id="linear-gradient-12" x1="-1232.921" y1="-0.676" x2="-1232.921" y2="3.047" xlink:href="#linear-gradient"/>
    <linearGradient id="linear-gradient-13" x1="0.5" y1="-1.896" x2="0.5" y2="3.742" xlink:href="#linear-gradient"/>
    <linearGradient id="linear-gradient-14" x1="0.5" y1="-0.444" x2="0.5" y2="1.298" xlink:href="#linear-gradient"/>
  </defs>
  <g id="Group_4625" data-name="Group 4625" transform="translate(-4453.804 3115.508)">
    <g id="Group_4617" data-name="Group 4617">
      <g id="Group_4615" data-name="Group 4615">
        <path id="Path_3484" data-name="Path 3484" d="M4474.471-3098.667h-1.244v-14.177a.872.872,0,0,0-.87-.871h-11.43a.872.872,0,0,0-.871.871v14.177h-1.244v-14.177a2.117,2.117,0,0,1,2.115-2.114h11.43a2.116,2.116,0,0,1,2.114,2.114Z" fill="url(#linear-gradient)"/>
      </g>
      <g id="Group_4616" data-name="Group 4616" style="mix-blend-mode: multiply;isolation: isolate">
        <path id="Path_3485" data-name="Path 3485" d="M4474.471-3098.667h-1.244v-14.177a.872.872,0,0,0-.87-.871h-11.43a.872.872,0,0,0-.871.871v14.177h-1.244v-14.177a2.117,2.117,0,0,1,2.115-2.114h11.43a2.116,2.116,0,0,1,2.114,2.114Z" fill="url(#linear-gradient-2)"/>
      </g>
    </g>
    <g id="Group_4620" data-name="Group 4620">
      <g id="Group_4618" data-name="Group 4618">
        <path id="Path_3486" data-name="Path 3486" d="M4461.661-3069.609a1.619,1.619,0,0,0-1.6-1.639,1.618,1.618,0,0,0-1.64,1.6,1.619,1.619,0,0,0,1.6,1.639A1.62,1.62,0,0,0,4461.661-3069.609Z" fill="url(#linear-gradient-3)"/>
        <path id="Path_3487" data-name="Path 3487" d="M4461.661-3069.609a1.619,1.619,0,0,0-1.6-1.639,1.618,1.618,0,0,0-1.64,1.6,1.619,1.619,0,0,0,1.6,1.639A1.62,1.62,0,0,0,4461.661-3069.609Z" fill="url(#linear-gradient-4)" style="mix-blend-mode: multiply;isolation: isolate"/>
        <path id="Path_3488" data-name="Path 3488" d="M4461.661-3069.609a1.619,1.619,0,0,0-1.6-1.639,1.618,1.618,0,0,0-1.64,1.6,1.619,1.619,0,0,0,1.6,1.639A1.62,1.62,0,0,0,4461.661-3069.609Z" fill="url(#linear-gradient-5)"/>
        <path id="Path_3489" data-name="Path 3489" d="M4460.665-3069.623a.621.621,0,0,0-.615-.629.621.621,0,0,0-.63.613.622.622,0,0,0,.614.631A.624.624,0,0,0,4460.665-3069.623Z" fill="#f5f5f5"/>
      </g>
      <g id="Group_4619" data-name="Group 4619">
        <path id="Path_3490" data-name="Path 3490" d="M4474.86-3069.609a1.617,1.617,0,0,0-1.6-1.639,1.619,1.619,0,0,0-1.64,1.6,1.619,1.619,0,0,0,1.6,1.639A1.618,1.618,0,0,0,4474.86-3069.609Z" fill="url(#linear-gradient-6)"/>
        <path id="Path_3491" data-name="Path 3491" d="M4474.86-3069.609a1.617,1.617,0,0,0-1.6-1.639,1.619,1.619,0,0,0-1.64,1.6,1.619,1.619,0,0,0,1.6,1.639A1.618,1.618,0,0,0,4474.86-3069.609Z" fill="url(#linear-gradient-7)" style="mix-blend-mode: multiply;isolation: isolate"/>
        <path id="Path_3492" data-name="Path 3492" d="M4474.86-3069.609a1.617,1.617,0,0,0-1.6-1.639,1.619,1.619,0,0,0-1.64,1.6,1.619,1.619,0,0,0,1.6,1.639A1.618,1.618,0,0,0,4474.86-3069.609Z" fill="url(#linear-gradient-8)"/>
        <path id="Path_3493" data-name="Path 3493" d="M4473.864-3069.623a.619.619,0,0,0-.614-.629.622.622,0,0,0-.631.613.622.622,0,0,0,.614.631A.624.624,0,0,0,4473.864-3069.623Z" fill="#f5f5f5"/>
      </g>
    </g>
    <rect id="Rectangle_1891" data-name="Rectangle 1891" width="21.283" height="27.173" rx="1.99" transform="translate(4456.001 -3098.667)" fill="url(#linear-gradient-9)"/>
    <path id="Path_3494" data-name="Path 3494" d="M4477.285-3096.679v23.2a1.994,1.994,0,0,1-2,1.988h-17.3a2.005,2.005,0,0,1-1.764-1.048,2.024,2.024,0,0,1-.231-.94v-23.2a1.994,1.994,0,0,1,2-1.987h17.3A1.993,1.993,0,0,1,4477.285-3096.679Z" fill="url(#linear-gradient-10)"/>
    <g id="Group_4621" data-name="Group 4621">
      <path id="Path_3495" data-name="Path 3495" d="M4477.284-3084.067v10.49h1a1.2,1.2,0,0,0,1.2-1.2v-9.29Z" fill="url(#linear-gradient-11)"/>
      <path id="Path_3496" data-name="Path 3496" d="M4477.284-3084.067v10.49h1a1.2,1.2,0,0,0,1.2-1.2v-9.29Z" fill="#09376e"/>
    </g>
    <g id="Group_4622" data-name="Group 4622">
      <path id="Path_3497" data-name="Path 3497" d="M4456-3084.067v10.49h-1a1.2,1.2,0,0,1-1.2-1.2v-9.29Z" fill="url(#linear-gradient-12)"/>
      <path id="Path_3498" data-name="Path 3498" d="M4456-3084.067v10.49h-1a1.2,1.2,0,0,1-1.2-1.2v-9.29Z" fill="#09376e"/>
    </g>
    <g id="Group_4623" data-name="Group 4623">
      <rect id="Rectangle_1892" data-name="Rectangle 1892" width="10.884" height="2.301" rx="0.498" transform="translate(4461.2 -3115.508)" fill="url(#linear-gradient-13)"/>
      <rect id="Rectangle_1893" data-name="Rectangle 1893" width="10.884" height="2.301" rx="0.498" transform="translate(4461.2 -3115.508)" fill="#09376e"/>
    </g>
    <path id="Path_3499" data-name="Path 3499" d="M4475.113-3098.666l-18.883,26.124a2.024,2.024,0,0,1-.231-.94v-14.36l8.02-10.824Z" fill="#fff" opacity="0.28"/>
    <path id="Path_3500" data-name="Path 3500" d="M4477.285-3094.629v4.977l-13.944,18.158h-4.268Z" fill="#fff" opacity="0.28"/>
    <g id="Group_4624" data-name="Group 4624">
      <rect id="Rectangle_1894" data-name="Rectangle 1894" width="17.214" height="12.926" rx="1.99" transform="translate(4458.035 -3086.503)" fill="url(#linear-gradient-14)"/>
      <rect id="Rectangle_1895" data-name="Rectangle 1895" width="17.214" height="12.926" rx="1.99" transform="translate(4458.035 -3086.503)" fill="#09376e"/>
    </g>
  </g>
</svg>
