<svg xmlns="http://www.w3.org/2000/svg" width="23.795" height="26.721" viewBox="0 0 23.795 26.721">
    <defs>
        <style>
            .cls-1{fill:#bbc4dc}
        </style>
    </defs>
    <g id="playstore" transform="translate(-.5)">
        <path id="Path_197" d="M.943 18.855a2.668 2.668 0 0 0-.443 1.5v21.967a2.686 2.686 0 0 0 .385 1.4l10.653-12.465zm0 0" class="cls-1" transform="translate(0 -17.971)"/>
        <path id="Path_198" d="M45.519 10.919l3.456-3.605L36.826.3a2.189 2.189 0 0 0-1.7-.218zm0 0" class="cls-1" transform="translate(-33.005)"/>
        <path id="Path_199" d="M43.385 276.18l-10.494 10.946a2.18 2.18 0 0 0 .695.114 2.209 2.209 0 0 0 1.107-.3l12.236-7.065zm0 0" class="cls-1" transform="translate(-30.871 -260.52)"/>
        <path id="Path_200" d="M284.726 173.445l-3.552-2.051-3.737 3.9 3.824 3.989 3.465-2a2.214 2.214 0 0 0 0-3.835zm0 0" class="cls-1" transform="translate(-261.538 -162.007)"/>
    </g>
</svg>
